<?xml version="1.0" encoding="UTF-8" standalone="no"?>
<!DOCTYPE svg PUBLIC "-//W3C//DTD SVG 1.1//EN"
 "http://www.w3.org/Graphics/SVG/1.1/DTD/svg11.dtd">
<!-- Generated by graphviz version 2.47.3 (20210619.1520)
 -->
<!-- Title: dependencies Pages: 1 -->
<svg width="366pt" height="247pt"
 viewBox="0.00 0.00 366.00 246.80" xmlns="http://www.w3.org/2000/svg" xmlns:xlink="http://www.w3.org/1999/xlink">
<g id="graph0" class="graph" transform="scale(1 1) rotate(0) translate(4 242.8)">
<title>dependencies</title>
<polygon fill="white" stroke="transparent" points="-4,4 -4,-242.8 362,-242.8 362,4 -4,4"/>
<text text-anchor="middle" x="179" y="-8.2" font-family="sans-serif" font-size="14.00">dependencies</text>
<g id="clust1" class="cluster">
<title>cluster_PortfolioModule</title>
<polygon fill="none" stroke="black" stroke-dasharray="1,5" points="8,-32.8 8,-230.8 350,-230.8 350,-32.8 8,-32.8"/>
</g>
<g id="clust2" class="cluster">
<title>cluster_PortfolioModule_declarations</title>
<polygon fill="none" stroke="black" points="194,-40.8 194,-92.8 342,-92.8 342,-40.8 194,-40.8"/>
</g>
<g id="clust5" class="cluster">
<title>cluster_PortfolioModule_exports</title>
<polygon fill="none" stroke="black" points="109,-170.8 109,-222.8 259,-222.8 259,-170.8 109,-170.8"/>
</g>
<g id="clust4" class="cluster">
<title>cluster_PortfolioModule_imports</title>
<polygon fill="none" stroke="black" points="16,-40.8 16,-92.8 186,-92.8 186,-40.8 16,-40.8"/>
</g>
<!-- PortfolioComponent -->
<g id="node1" class="node">
<title>PortfolioComponent</title>
<polygon fill="#ffffb3" stroke="black" points="333.61,-84.8 202.39,-84.8 202.39,-48.8 333.61,-48.8 333.61,-84.8"/>
<text text-anchor="middle" x="268" y="-62.6" font-family="Times,serif" font-size="14.00">PortfolioComponent</text>
</g>
<!-- PortfolioModule -->
<g id="node2" class="node">
<title>PortfolioModule</title>
<polygon fill="#8dd3c7" stroke="black" points="238.83,-149.8 235.83,-153.8 214.83,-153.8 211.83,-149.8 129.17,-149.8 129.17,-113.8 238.83,-113.8 238.83,-149.8"/>
<text text-anchor="middle" x="184" y="-127.6" font-family="Times,serif" font-size="14.00">PortfolioModule</text>
</g>
<!-- PortfolioComponent&#45;&gt;PortfolioModule -->
<g id="edge1" class="edge">
<title>PortfolioComponent&#45;&gt;PortfolioModule</title>
<path fill="none" stroke="black" d="M220.55,-84.91C220.55,-84.91 220.55,-103.79 220.55,-103.79"/>
<polygon fill="black" stroke="black" points="217.05,-103.79 220.55,-113.79 224.05,-103.79 217.05,-103.79"/>
</g>
<!-- PortfolioComponent  -->
<g id="node4" class="node">
<title>PortfolioComponent </title>
<polygon fill="#fb8072" stroke="black" points="251.11,-214.8 116.89,-214.8 116.89,-178.8 251.11,-178.8 251.11,-214.8"/>
<text text-anchor="middle" x="184" y="-192.6" font-family="Times,serif" font-size="14.00">PortfolioComponent </text>
</g>
<!-- PortfolioModule&#45;&gt;PortfolioComponent  -->
<g id="edge3" class="edge">
<title>PortfolioModule&#45;&gt;PortfolioComponent </title>
<path fill="none" stroke="black" stroke-dasharray="5,2" d="M184,-149.91C184,-149.91 184,-168.79 184,-168.79"/>
<polygon fill="black" stroke="black" points="180.5,-168.79 184,-178.79 187.5,-168.79 180.5,-168.79"/>
</g>
<!-- PortfolioRoutingModule -->
<g id="node3" class="node">
<title>PortfolioRoutingModule</title>
<polygon fill="#8dd3c7" stroke="black" points="178.44,-84.8 175.44,-88.8 154.44,-88.8 151.44,-84.8 23.56,-84.8 23.56,-48.8 178.44,-48.8 178.44,-84.8"/>
<text text-anchor="middle" x="101" y="-62.6" font-family="Times,serif" font-size="14.00">PortfolioRoutingModule</text>
</g>
<!-- PortfolioRoutingModule&#45;&gt;PortfolioModule -->
<g id="edge2" class="edge">
<title>PortfolioRoutingModule&#45;&gt;PortfolioModule</title>
<path fill="none" stroke="black" d="M153.78,-84.91C153.78,-84.91 153.78,-103.79 153.78,-103.79"/>
<polygon fill="black" stroke="black" points="150.28,-103.79 153.78,-113.79 157.28,-103.79 150.28,-103.79"/>
</g>
</g>
</svg>
