<?xml version="1.0" encoding="UTF-8" standalone="no"?>
<!DOCTYPE svg PUBLIC "-//W3C//DTD SVG 1.1//EN"
 "http://www.w3.org/Graphics/SVG/1.1/DTD/svg11.dtd">
<!-- Generated by graphviz version 2.47.3 (20210619.1520)
 -->
<!-- Title: dependencies Pages: 1 -->
<svg width="314pt" height="247pt"
 viewBox="0.00 0.00 314.00 246.80" xmlns="http://www.w3.org/2000/svg" xmlns:xlink="http://www.w3.org/1999/xlink">
<g id="graph0" class="graph" transform="scale(1 1) rotate(0) translate(4 242.8)">
<title>dependencies</title>
<polygon fill="white" stroke="transparent" points="-4,4 -4,-242.8 310,-242.8 310,4 -4,4"/>
<text text-anchor="middle" x="153" y="-8.2" font-family="sans-serif" font-size="14.00">dependencies</text>
<g id="clust1" class="cluster">
<title>cluster_PostModule</title>
<polygon fill="none" stroke="black" stroke-dasharray="1,5" points="8,-32.8 8,-230.8 298,-230.8 298,-32.8 8,-32.8"/>
</g>
<g id="clust2" class="cluster">
<title>cluster_PostModule_declarations</title>
<polygon fill="none" stroke="black" points="168,-40.8 168,-92.8 290,-92.8 290,-40.8 168,-40.8"/>
</g>
<g id="clust5" class="cluster">
<title>cluster_PostModule_exports</title>
<polygon fill="none" stroke="black" points="96,-170.8 96,-222.8 220,-222.8 220,-170.8 96,-170.8"/>
</g>
<g id="clust4" class="cluster">
<title>cluster_PostModule_imports</title>
<polygon fill="none" stroke="black" points="16,-40.8 16,-92.8 160,-92.8 160,-40.8 16,-40.8"/>
</g>
<!-- PostComponent -->
<g id="node1" class="node">
<title>PostComponent</title>
<polygon fill="#ffffb3" stroke="black" points="281.95,-84.8 176.05,-84.8 176.05,-48.8 281.95,-48.8 281.95,-84.8"/>
<text text-anchor="middle" x="229" y="-62.6" font-family="Times,serif" font-size="14.00">PostComponent</text>
</g>
<!-- PostModule -->
<g id="node2" class="node">
<title>PostModule</title>
<polygon fill="#8dd3c7" stroke="black" points="199.67,-149.8 196.67,-153.8 175.67,-153.8 172.67,-149.8 116.33,-149.8 116.33,-113.8 199.67,-113.8 199.67,-149.8"/>
<text text-anchor="middle" x="158" y="-127.6" font-family="Times,serif" font-size="14.00">PostModule</text>
</g>
<!-- PostComponent&#45;&gt;PostModule -->
<g id="edge1" class="edge">
<title>PostComponent&#45;&gt;PostModule</title>
<path fill="none" stroke="black" d="M188.05,-84.91C188.05,-84.91 188.05,-103.79 188.05,-103.79"/>
<polygon fill="black" stroke="black" points="184.55,-103.79 188.05,-113.79 191.55,-103.79 184.55,-103.79"/>
</g>
<!-- PostComponent  -->
<g id="node4" class="node">
<title>PostComponent </title>
<polygon fill="#fb8072" stroke="black" points="212.45,-214.8 103.55,-214.8 103.55,-178.8 212.45,-178.8 212.45,-214.8"/>
<text text-anchor="middle" x="158" y="-192.6" font-family="Times,serif" font-size="14.00">PostComponent </text>
</g>
<!-- PostModule&#45;&gt;PostComponent  -->
<g id="edge3" class="edge">
<title>PostModule&#45;&gt;PostComponent </title>
<path fill="none" stroke="black" stroke-dasharray="5,2" d="M158,-149.91C158,-149.91 158,-168.79 158,-168.79"/>
<polygon fill="black" stroke="black" points="154.5,-168.79 158,-178.79 161.5,-168.79 154.5,-168.79"/>
</g>
<!-- PostRoutingModule -->
<g id="node3" class="node">
<title>PostRoutingModule</title>
<polygon fill="#8dd3c7" stroke="black" points="152.29,-84.8 149.29,-88.8 128.29,-88.8 125.29,-84.8 23.71,-84.8 23.71,-48.8 152.29,-48.8 152.29,-84.8"/>
<text text-anchor="middle" x="88" y="-62.6" font-family="Times,serif" font-size="14.00">PostRoutingModule</text>
</g>
<!-- PostRoutingModule&#45;&gt;PostModule -->
<g id="edge2" class="edge">
<title>PostRoutingModule&#45;&gt;PostModule</title>
<path fill="none" stroke="black" d="M134.28,-84.91C134.28,-84.91 134.28,-103.79 134.28,-103.79"/>
<polygon fill="black" stroke="black" points="130.78,-103.79 134.28,-113.79 137.78,-103.79 130.78,-103.79"/>
</g>
</g>
</svg>
